G04 Layer: TopSilkscreenLayer*
G04 EasyEDA v6.5.46, 2024-09-12 22:27:14*
G04 Gerber Generator version 0.2*
G04 Scale: 100 percent, Rotated: No, Reflected: No *
G04 Dimensions in millimeters *
G04 leading zeros omitted , absolute positions ,4 integer and 5 decimal *
%FSLAX45Y45*%
%MOMM*%

%ADD10C,0.1524*%
%ADD11C,0.2540*%

%LPD*%
D10*
X1917687Y8230615D02*
G01*
X1917687Y8152637D01*
X1922767Y8137144D01*
X1933181Y8126729D01*
X1948929Y8121650D01*
X1959343Y8121650D01*
X1974837Y8126729D01*
X1985251Y8137144D01*
X1990331Y8152637D01*
X1990331Y8230615D01*
X2024621Y8209787D02*
G01*
X2035035Y8215121D01*
X2050783Y8230615D01*
X2050783Y8121650D01*
X3670287Y10046715D02*
G01*
X3670287Y9968737D01*
X3675367Y9953244D01*
X3685781Y9942829D01*
X3701529Y9937750D01*
X3711943Y9937750D01*
X3727437Y9942829D01*
X3737851Y9953244D01*
X3742931Y9968737D01*
X3742931Y10046715D01*
X3782555Y10020808D02*
G01*
X3782555Y10025887D01*
X3787635Y10036302D01*
X3792969Y10041636D01*
X3803383Y10046715D01*
X3823957Y10046715D01*
X3834371Y10041636D01*
X3839705Y10036302D01*
X3844785Y10025887D01*
X3844785Y10015474D01*
X3839705Y10005060D01*
X3829291Y9989565D01*
X3777221Y9937750D01*
X3850119Y9937750D01*
X4825987Y10059415D02*
G01*
X4825987Y9981437D01*
X4831067Y9965944D01*
X4841481Y9955529D01*
X4857229Y9950450D01*
X4867643Y9950450D01*
X4883137Y9955529D01*
X4893551Y9965944D01*
X4898631Y9981437D01*
X4898631Y10059415D01*
X4943335Y10059415D02*
G01*
X5000485Y10059415D01*
X4969497Y10017760D01*
X4984991Y10017760D01*
X4995405Y10012679D01*
X5000485Y10007600D01*
X5005819Y9991852D01*
X5005819Y9981437D01*
X5000485Y9965944D01*
X4990071Y9955529D01*
X4974577Y9950450D01*
X4959083Y9950450D01*
X4943335Y9955529D01*
X4938255Y9960610D01*
X4932921Y9971024D01*
X1396987Y10059415D02*
G01*
X1396987Y9981437D01*
X1402067Y9965944D01*
X1412481Y9955529D01*
X1428229Y9950450D01*
X1438643Y9950450D01*
X1454137Y9955529D01*
X1464551Y9965944D01*
X1469631Y9981437D01*
X1469631Y10059415D01*
X1555991Y10059415D02*
G01*
X1503921Y9986771D01*
X1581899Y9986771D01*
X1555991Y10059415D02*
G01*
X1555991Y9950450D01*
X2438387Y10059415D02*
G01*
X2438387Y9981437D01*
X2443467Y9965944D01*
X2453881Y9955529D01*
X2469629Y9950450D01*
X2480043Y9950450D01*
X2495537Y9955529D01*
X2505951Y9965944D01*
X2511031Y9981437D01*
X2511031Y10059415D01*
X2607805Y10059415D02*
G01*
X2555735Y10059415D01*
X2550655Y10012679D01*
X2555735Y10017760D01*
X2571483Y10023094D01*
X2586977Y10023094D01*
X2602471Y10017760D01*
X2612885Y10007600D01*
X2618219Y9991852D01*
X2618219Y9981437D01*
X2612885Y9965944D01*
X2602471Y9955529D01*
X2586977Y9950450D01*
X2571483Y9950450D01*
X2555735Y9955529D01*
X2550655Y9960610D01*
X2545321Y9971024D01*
X4216400Y7963915D02*
G01*
X4216400Y7885937D01*
X4221479Y7870444D01*
X4231893Y7860029D01*
X4247641Y7854950D01*
X4258056Y7854950D01*
X4273550Y7860029D01*
X4283963Y7870444D01*
X4289043Y7885937D01*
X4289043Y7963915D01*
X4385818Y7948421D02*
G01*
X4380484Y7958836D01*
X4364990Y7963915D01*
X4354575Y7963915D01*
X4339081Y7958836D01*
X4328668Y7943087D01*
X4323334Y7917179D01*
X4323334Y7891271D01*
X4328668Y7870444D01*
X4339081Y7860029D01*
X4354575Y7854950D01*
X4359909Y7854950D01*
X4375404Y7860029D01*
X4385818Y7870444D01*
X4390897Y7885937D01*
X4390897Y7891271D01*
X4385818Y7906765D01*
X4375404Y7917179D01*
X4359909Y7922260D01*
X4354575Y7922260D01*
X4339081Y7917179D01*
X4328668Y7906765D01*
X4323334Y7891271D01*
G36*
X1468526Y7931912D02*
G01*
X1409700Y7930845D01*
X1409700Y7848600D01*
X1468475Y7848600D01*
G37*
G36*
X1467916Y7278573D02*
G01*
X1409090Y7277455D01*
X1409090Y7195261D01*
X1467916Y7195261D01*
G37*
G36*
X3221075Y9748012D02*
G01*
X3162300Y9746945D01*
X3162300Y9664700D01*
X3221075Y9664700D01*
G37*
G36*
X3220516Y9094673D02*
G01*
X3161690Y9093555D01*
X3161690Y9011361D01*
X3220516Y9011361D01*
G37*
G36*
X4376775Y9760712D02*
G01*
X4318000Y9759645D01*
X4318000Y9677400D01*
X4376775Y9677400D01*
G37*
G36*
X4376216Y9107373D02*
G01*
X4317390Y9106255D01*
X4317390Y9024061D01*
X4376216Y9024061D01*
G37*
G36*
X947826Y9760712D02*
G01*
X889000Y9759645D01*
X889000Y9677400D01*
X947775Y9677400D01*
G37*
G36*
X947216Y9107373D02*
G01*
X888390Y9106255D01*
X888390Y9024061D01*
X947216Y9024061D01*
G37*
G36*
X1989175Y9760712D02*
G01*
X1930400Y9759645D01*
X1930400Y9677400D01*
X1989175Y9677400D01*
G37*
G36*
X1988616Y9107373D02*
G01*
X1929790Y9106255D01*
X1929790Y9024061D01*
X1988616Y9024061D01*
G37*
D11*
X2103498Y7061954D02*
G01*
X2103498Y7331961D01*
X2148456Y7376919D01*
X2278504Y7376919D01*
X2325999Y7329418D01*
X2325999Y7061954D01*
X1603489Y7061962D02*
G01*
X1603489Y7331963D01*
X1648447Y7376921D01*
X1778495Y7376921D01*
X1825993Y7329423D01*
X1825993Y7061962D01*
X1468488Y7930827D02*
G01*
X1409687Y7930827D01*
X1409687Y7848600D01*
X1468488Y7848600D01*
X1468488Y7276475D02*
G01*
X1409687Y7276475D01*
X1409687Y7194247D01*
X1468488Y7194247D01*
X1468488Y8081898D02*
G01*
X2468486Y8081898D01*
X2108365Y8009676D02*
G01*
X2339327Y8009676D01*
X2108365Y8081901D02*
G01*
X2108365Y7962900D01*
X2339327Y7962900D01*
X2339327Y8081901D01*
X1610527Y8009674D02*
G01*
X1841487Y8009674D01*
X1610527Y8081898D02*
G01*
X1610527Y7962900D01*
X1841487Y7962900D01*
X1841487Y8081898D01*
X1468488Y7803268D02*
G01*
X2468486Y7803268D01*
X1468488Y7061898D02*
G01*
X2468486Y7061898D01*
X2468486Y8081898D02*
G01*
X2468486Y7061898D01*
X1468488Y8081898D02*
G01*
X1468488Y7061898D01*
X3856098Y8878054D02*
G01*
X3856098Y9148061D01*
X3901056Y9193019D01*
X4031104Y9193019D01*
X4078599Y9145518D01*
X4078599Y8878054D01*
X3356089Y8878062D02*
G01*
X3356089Y9148063D01*
X3401047Y9193021D01*
X3531095Y9193021D01*
X3578593Y9145524D01*
X3578593Y8878062D01*
X3221088Y9746927D02*
G01*
X3162287Y9746927D01*
X3162287Y9664700D01*
X3221088Y9664700D01*
X3221088Y9092575D02*
G01*
X3162287Y9092575D01*
X3162287Y9010347D01*
X3221088Y9010347D01*
X3221088Y9897999D02*
G01*
X4221086Y9897999D01*
X3860965Y9825776D02*
G01*
X4091927Y9825776D01*
X3860965Y9898001D02*
G01*
X3860965Y9779000D01*
X4091927Y9779000D01*
X4091927Y9898001D01*
X3363127Y9825774D02*
G01*
X3594087Y9825774D01*
X3363127Y9897999D02*
G01*
X3363127Y9779000D01*
X3594087Y9779000D01*
X3594087Y9897999D01*
X3221088Y9619368D02*
G01*
X4221086Y9619368D01*
X3221088Y8877998D02*
G01*
X4221086Y8877998D01*
X4221086Y9897999D02*
G01*
X4221086Y8877998D01*
X3221088Y9897999D02*
G01*
X3221088Y8877998D01*
X5011798Y8890754D02*
G01*
X5011798Y9160761D01*
X5056756Y9205719D01*
X5186804Y9205719D01*
X5234299Y9158218D01*
X5234299Y8890754D01*
X4511789Y8890762D02*
G01*
X4511789Y9160763D01*
X4556747Y9205721D01*
X4686795Y9205721D01*
X4734293Y9158224D01*
X4734293Y8890762D01*
X4376788Y9759627D02*
G01*
X4317987Y9759627D01*
X4317987Y9677400D01*
X4376788Y9677400D01*
X4376788Y9105275D02*
G01*
X4317987Y9105275D01*
X4317987Y9023047D01*
X4376788Y9023047D01*
X4376788Y9910699D02*
G01*
X5376786Y9910699D01*
X5016665Y9838476D02*
G01*
X5247627Y9838476D01*
X5016665Y9910701D02*
G01*
X5016665Y9791700D01*
X5247627Y9791700D01*
X5247627Y9910701D01*
X4518827Y9838474D02*
G01*
X4749787Y9838474D01*
X4518827Y9910699D02*
G01*
X4518827Y9791700D01*
X4749787Y9791700D01*
X4749787Y9910699D01*
X4376788Y9632068D02*
G01*
X5376786Y9632068D01*
X4376788Y8890698D02*
G01*
X5376786Y8890698D01*
X5376786Y9910699D02*
G01*
X5376786Y8890698D01*
X4376788Y9910699D02*
G01*
X4376788Y8890698D01*
X1582798Y8890754D02*
G01*
X1582798Y9160761D01*
X1627756Y9205719D01*
X1757804Y9205719D01*
X1805299Y9158218D01*
X1805299Y8890754D01*
X1082789Y8890762D02*
G01*
X1082789Y9160763D01*
X1127747Y9205721D01*
X1257795Y9205721D01*
X1305293Y9158224D01*
X1305293Y8890762D01*
X947788Y9759627D02*
G01*
X888987Y9759627D01*
X888987Y9677400D01*
X947788Y9677400D01*
X947788Y9105275D02*
G01*
X888987Y9105275D01*
X888987Y9023047D01*
X947788Y9023047D01*
X947788Y9910699D02*
G01*
X1947786Y9910699D01*
X1587665Y9838476D02*
G01*
X1818627Y9838476D01*
X1587665Y9910701D02*
G01*
X1587665Y9791700D01*
X1818627Y9791700D01*
X1818627Y9910701D01*
X1089827Y9838474D02*
G01*
X1320787Y9838474D01*
X1089827Y9910699D02*
G01*
X1089827Y9791700D01*
X1320787Y9791700D01*
X1320787Y9910699D01*
X947788Y9632068D02*
G01*
X1947786Y9632068D01*
X947788Y8890698D02*
G01*
X1947786Y8890698D01*
X1947786Y9910699D02*
G01*
X1947786Y8890698D01*
X947788Y9910699D02*
G01*
X947788Y8890698D01*
X2624198Y8890754D02*
G01*
X2624198Y9160761D01*
X2669156Y9205719D01*
X2799204Y9205719D01*
X2846699Y9158218D01*
X2846699Y8890754D01*
X2124189Y8890762D02*
G01*
X2124189Y9160763D01*
X2169147Y9205721D01*
X2299195Y9205721D01*
X2346693Y9158224D01*
X2346693Y8890762D01*
X1989188Y9759627D02*
G01*
X1930387Y9759627D01*
X1930387Y9677400D01*
X1989188Y9677400D01*
X1989188Y9105275D02*
G01*
X1930387Y9105275D01*
X1930387Y9023047D01*
X1989188Y9023047D01*
X1989188Y9910699D02*
G01*
X2989186Y9910699D01*
X2629065Y9838476D02*
G01*
X2860027Y9838476D01*
X2629065Y9910701D02*
G01*
X2629065Y9791700D01*
X2860027Y9791700D01*
X2860027Y9910701D01*
X2131227Y9838474D02*
G01*
X2362187Y9838474D01*
X2131227Y9910699D02*
G01*
X2131227Y9791700D01*
X2362187Y9791700D01*
X2362187Y9910699D01*
X1989188Y9632068D02*
G01*
X2989186Y9632068D01*
X1989188Y8890698D02*
G01*
X2989186Y8890698D01*
X2989186Y9910699D02*
G01*
X2989186Y8890698D01*
X1989188Y9910699D02*
G01*
X1989188Y8890698D01*
X4404083Y7179055D02*
G01*
X4404083Y7329678D01*
X4437357Y7362952D01*
X4553435Y7362952D01*
X4587471Y7328915D01*
X4587471Y7179055D01*
X4150083Y7179055D02*
G01*
X4150083Y7329678D01*
X4183357Y7362952D01*
X4299435Y7362952D01*
X4333471Y7328915D01*
X4333471Y7179055D01*
X3896083Y7179055D02*
G01*
X3896083Y7329678D01*
X3929357Y7362952D01*
X4045435Y7362952D01*
X4079471Y7328915D01*
X4079471Y7179055D01*
X3910584Y7806944D02*
G01*
X3910584Y7763002D01*
X4065015Y7763002D01*
X4065015Y7806944D01*
X3836799Y7645463D02*
G01*
X4646800Y7645463D01*
X4418329Y7806944D02*
G01*
X4418329Y7763002D01*
X4572761Y7763002D01*
X4572761Y7806944D01*
X4164329Y7806944D02*
G01*
X4164329Y7763002D01*
X4318761Y7763002D01*
X4318761Y7806944D01*
X3836799Y7179000D02*
G01*
X4646800Y7179000D01*
X3836799Y7806999D02*
G01*
X4646800Y7806999D01*
X3836799Y7806999D02*
G01*
X3836799Y7179000D01*
X4646800Y7806999D02*
G01*
X4646800Y7179000D01*
M02*
